# xmcd CD database file
#
# Track frame offsets:
#	182
#	23687
#	37835
#	55232
#	81380
#	99612
#	114325
#	134692
#	145162
#	160880
#	181882
#
# Disc length: 2726 seconds
#
# Revision: 0
# Processed by: cddbd v1.5.1PL0 Copyright (c) Steve Scherf et al.
# Submitted via: CDex 1.51
#
DISCID=8d0aa40b
DTITLE=Rui Azul - Pressões Digitais
DYEAR=1990
DGENRE=Jazz
TTITLE0=Etnografias
TTITLE1=Dois
TTITLE2=Borneo and Sumatra
TTITLE3=Night Loop
TTITLE4=Algures em Alfa C.
TTITLE5=Nocturno 01
TTITLE6=Pressões Digitais
TTITLE7=Saxofonemas
TTITLE8=Um
TTITLE9=666 Bis
TTITLE10=Três
EXTD=YEAR: 1990
EXTT0=
EXTT1=
EXTT2=
EXTT3=
EXTT4=
EXTT5=
EXTT6=
EXTT7=
EXTT8=
EXTT9=
EXTT10=
PLAYORDER=
